<?xml version="1.0" encoding="utf-8"?>
<!-- Uploaded to: SVG Repo, www.svgrepo.com, Generator: SVG Repo Mixer Tools -->
<svg width="800px" height="800px" viewBox="0 -0.29 54.369 54.369" xmlns="http://www.w3.org/2000/svg">
  <g id="Group_10" data-name="Group 10" transform="translate(-786.215 -503.445)">
    <path id="Path_29" data-name="Path 29" d="M833.076,538.814a18.275,18.275,0,0,0,5.508-12.82c0-11.349-11.275-20.549-25.184-20.549s-25.185,9.2-25.185,20.549a18.267,18.267,0,0,0,5.509,12.82,8.684,8.684,0,1,0,11.815,11.412,8.674,8.674,0,0,0,15.722,0,8.683,8.683,0,1,0,11.815-11.412Z" fill="#ffffff" stroke="#231f20" stroke-linecap="round" stroke-linejoin="round" stroke-width="4"/>
    <path id="Path_30" data-name="Path 30" d="M810.2,526.606A6.406,6.406,0,1,1,803.8,520.2,6.408,6.408,0,0,1,810.2,526.606Z" fill="#d1d3d4" stroke="#231f20" stroke-linecap="round" stroke-linejoin="round" stroke-width="4"/>
    <path id="Path_31" data-name="Path 31" d="M828.976,526.606a6.407,6.407,0,1,1-6.408-6.406A6.409,6.409,0,0,1,828.976,526.606Z" fill="#d1d3d4" stroke="#231f20" stroke-linecap="round" stroke-linejoin="round" stroke-width="4"/>
  </g>
</svg>