<svg fill="#ffffff" version="1.1" id="Layer_1" xmlns="http://www.w3.org/2000/svg" xmlns:xlink="http://www.w3.org/1999/xlink" viewBox="0 0 300 300" enable-background="new 0 0 300 300" xml:space="preserve" stroke="#ffffff"><g id="SVGRepo_bgCarrier" stroke-width="0"></g><g id="SVGRepo_tracerCarrier" stroke-linecap="round" stroke-linejoin="round"></g><g id="SVGRepo_iconCarrier"> <path d="M179.5,60.1c11.2,0,20.2-9,20.5-20.1h-41C159.4,51,168.5,60.1,179.5,60.1z M217,32v-7h-17.4c-1.1-10.3-9.6-18-20.2-18 c-11,0-19.9,8.7-20.4,19.6V32H217z M128.1,209l14.7-25.6l-21-19.6L107.9,188H59c-7.7,0-14,6.3-14,14s6.3,14,14,14h57 C121,216,125.7,213.3,128.1,209z M194.3,275.1c-4.8,0-8.6,3.9-8.6,8.6c0,4.8,3.8,8.7,8.6,8.7s8.6-3.9,8.6-8.7 C202.9,278.9,199,275.1,194.3,275.1z M123.9,275.1c-4.8,0-8.7,3.9-8.7,8.7c0,4.8,3.9,8.7,8.7,8.7s8.7-3.9,8.7-8.7 C132.6,278.9,128.7,275.1,123.9,275.1z M254,123.2c-0.1,6-5.3,10.8-11.4,10.8H204c-6.1,0-11-4.9-11-11V95.8l-31.4,55.9l33.5,31.2 c4.4,4.1,5.7,10.7,3.1,16.2l-25.9,54.8c-0.5,1.2-1.3,2.2-2.1,3.1h21.6c10.2,0,20-2,29.3-5.8l6.4-2.7l5.1,12l-6.4,2.7 c-10.9,4.5-22.4,6.8-34.3,6.8h-65.6c-11.6,0-23.2-2.3-34.2-6.8l-6.5-2.7l5.1-12l6.4,2.7c9.4,3.8,19.3,5.8,29.3,5.8H149 c-3.5-4.1-4.5-9.9-2.1-15.1l21.6-45.5c0,0-39.6-36.9-43.3-40.4c-7.8-7.2-7.9-17.2-3.8-24.3l20.5-36l-45.7,44 c-4.4,4.2-11.4,4.1-15.6-0.3c-4.2-4.4-4.1-11.4,0.3-15.6l52.2-50.3c5-4.8,11.5-7.5,18.5-7.5h46.3c12.3,0,17.1,10.7,17.1,18v28h28 C249.2,112,254.1,117,254,123.2z"></path> </g></svg>